<svg clip-rule="evenodd" fill-rule="evenodd" height="512" stroke-linejoin="round" stroke-miterlimit="2" viewBox="0 0 64 64" width="512" xmlns="http://www.w3.org/2000/svg"><path d="m29.905 4.782-1.49 2.821c-.053.101-.151.172-.263.191l-3.144.546c-.865.15-1.576.767-1.848 1.602-.271.835-.058 1.752.553 2.382l2.223 2.29c.08.082.117.196.101.309l-.453 3.158c-.125.87.242 1.737.953 2.253.71.516 1.648.597 2.436.21l2.864-1.407c.103-.05.223-.05.326 0l2.864 1.407c.788.387 1.726.306 2.436-.21.711-.516 1.078-1.383.953-2.253l-.453-3.158c-.016-.113.021-.227.101-.309l2.223-2.29c.611-.63.824-1.547.553-2.382-.272-.835-.983-1.452-1.848-1.602l-3.144-.546c-.112-.019-.21-.09-.263-.191l-1.49-2.821c-.411-.777-1.217-1.262-2.095-1.262s-1.684.485-2.095 1.262zm1.769.934c.064-.121.189-.196.326-.196s.262.075.326.196l1.491 2.821c.342.649.966 1.103 1.689 1.228l3.144.546c.135.023.246.119.288.249s.009.273-.086.371l-2.223 2.289c-.511.527-.75 1.26-.645 1.987l.452 3.158c.02.136-.038.271-.148.351-.111.08-.257.093-.38.033l-2.864-1.407c-.658-.323-1.43-.323-2.088 0l-2.864 1.407c-.123.06-.269.047-.38-.033-.11-.08-.168-.215-.148-.351l.452-3.158c.105-.727-.134-1.46-.645-1.987l-2.223-2.289c-.095-.098-.128-.241-.086-.371s.153-.226.288-.249l3.144-.546c.723-.125 1.347-.579 1.689-1.228z"/><path d="m56.659 14.128-3.049.941c-.109.034-.228.015-.321-.05l-2.609-1.838c-.718-.505-1.657-.572-2.44-.174-.782.399-1.28 1.198-1.293 2.076l-.047 3.191c-.002.114-.056.221-.148.289l-2.553 1.914c-.703.526-1.057 1.399-.919 2.266.137.868.743 1.588 1.574 1.872l3.02 1.03c.108.037.193.122.23.23l1.031 3.02c.283.831 1.004 1.437 1.871 1.575.867.137 1.74-.217 2.266-.92l1.914-2.553c.068-.092.175-.146.29-.148l3.19-.047c.878-.013 1.677-.511 2.076-1.293.399-.783.332-1.722-.174-2.44l-1.837-2.608c-.066-.094-.085-.212-.051-.322l.941-3.048c.259-.84.033-1.753-.589-2.374-.621-.621-1.534-.848-2.373-.589zm.59 1.911c.13-.04.273-.005.369.092.097.097.132.239.092.37l-.941 3.048c-.217.702-.096 1.463.327 2.063l1.837 2.609c.078.112.089.258.027.38s-.187.199-.324.201l-3.19.047c-.734.011-1.421.361-1.861.949l-1.913 2.553c-.082.109-.218.165-.353.143-.135-.021-.247-.116-.292-.245l-1.03-3.02c-.237-.694-.783-1.24-1.477-1.477l-3.02-1.03c-.129-.044-.224-.157-.245-.292s.034-.271.143-.353l2.554-1.913c.587-.44.937-1.127.948-1.861l.047-3.19c.002-.137.079-.261.201-.324.122-.062.268-.051.38.028l2.609 1.837c.6.422 1.362.543 2.063.326z"/><path d="m4.379 17.091.941 3.048c.034.11.015.228-.051.322l-1.837 2.608c-.506.718-.573 1.657-.174 2.44.399.782 1.198 1.28 2.076 1.293l3.19.047c.115.002.222.056.29.148l1.914 2.553c.526.703 1.399 1.057 2.266.92.867-.138 1.588-.744 1.871-1.575l1.031-3.02c.037-.108.122-.193.23-.23l3.02-1.03c.831-.284 1.437-1.004 1.574-1.872.138-.867-.216-1.74-.919-2.266l-2.553-1.913c-.092-.069-.146-.176-.148-.29l-.047-3.191c-.013-.878-.511-1.677-1.293-2.076-.783-.398-1.722-.331-2.44.174l-2.609 1.837c-.093.066-.212.085-.321.051l-3.049-.941c-.839-.259-1.752-.032-2.373.589-.622.621-.848 1.534-.589 2.374zm1.911-.59c-.04-.131-.005-.273.092-.37.096-.097.239-.132.369-.092l3.049.941c.701.217 1.463.096 2.063-.326l2.609-1.837c.112-.079.258-.09.38-.028.122.063.199.187.201.324l.047 3.19c.011.734.361 1.421.948 1.861l2.554 1.913c.109.082.164.218.143.353s-.116.248-.245.292l-3.02 1.03c-.694.237-1.24.783-1.477 1.477l-1.03 3.02c-.045.129-.157.224-.292.245-.135.022-.271-.034-.353-.143l-1.913-2.553c-.44-.588-1.127-.938-1.861-.949l-3.19-.047c-.137-.002-.262-.079-.324-.201s-.051-.268.027-.38l1.837-2.609c.423-.6.544-1.361.327-2.063z"/><path d="m32 23.148c-10.302 0-18.666 8.364-18.666 18.666 0 10.303 8.364 18.666 18.666 18.666s18.666-8.363 18.666-18.666c0-10.302-8.364-18.666-18.666-18.666zm0 2c9.198 0 16.666 7.468 16.666 16.666 0 9.199-7.468 16.666-16.666 16.666s-16.666-7.467-16.666-16.666c0-9.198 7.468-16.666 16.666-16.666z"/><path d="m39.187 43.464c-3.715 0-10.666 0-14.38.026-.986 0-1.913.495-2.465 1.319-.552.825-.657 1.871-.279 2.788 1.586 3.924 5.44 6.7 9.937 6.7 4.494 0 8.347-2.773 9.961-6.689.382-.926.276-1.981-.281-2.813s-1.493-1.331-2.494-1.331zm0 2c.334 0 .646.167.831.444.186.277.221.629.094.937-1.315 3.191-4.451 5.452-8.112 5.452-3.658 0-6.793-2.258-8.085-5.455-.001-.002-.002-.004-.003-.006-.124-.301-.089-.644.092-.914s.484-.432.809-.432h.007c3.711-.026 10.655-.026 14.367-.026z"/><path d="m23.215 38.06c.065-.416.386-.703.75-.959.207-.146.455-.227.712-.317.353-.124.743-.177 1.14-.153.328-.02.651.011.954.095.217.06.43.112.62.211.508.264.951.604 1.028 1.123 0 .278.225.504.503.504s.504-.226.504-.504c.136-.923-.337-1.793-1.094-2.473-.457-.41-1.051-.694-1.693-.857-.266-.067-.543-.088-.822-.098-.373.015-.742.056-1.088.166-.54.171-1.041.424-1.434.778-.759.684-1.228 1.559-1.087 2.484 0 .278.226.504.504.504.277 0 .503-.226.503-.504z"/><path d="m35.581 38.06c.066-.416.386-.703.751-.959.206-.146.455-.227.711-.317.354-.124.744-.177 1.14-.153.328-.02.651.011.954.095.218.06.43.112.62.211.509.264.951.604 1.028 1.123 0 .278.226.504.503.504.278 0 .504-.226.504-.504.136-.923-.336-1.793-1.094-2.473-.457-.41-1.051-.694-1.693-.857-.265-.067-.543-.088-.822-.098-.372.015-.742.056-1.088.166-.54.171-1.041.424-1.434.778-.758.684-1.228 1.559-1.087 2.484 0 .278.226.504.504.504s.503-.226.503-.504z"/><path d="m25.796 51.367c-.178.444-.017.951.384 1.211 1.677 1.088 3.675 1.719 5.82 1.719 2.144 0 4.142-.631 5.82-1.716.402-.26.563-.768.385-1.212-.889-2.22-3.318-3.86-6.205-3.86-2.886 0-5.314 1.639-6.204 3.858zm2.271-.007c.807-1.123 2.277-1.851 3.933-1.851 1.657 0 3.126.728 3.934 1.852-1.183.599-2.519.936-3.934.936s-2.751-.337-3.933-.937z"/></svg>