<svg id="light" enable-background="new 0 0 24 24" height="512" viewBox="0 0 24 24" width="512" xmlns="http://www.w3.org/2000/svg"><path d="m11.861 19.066c-.128 0-.256-.049-.354-.146l-6.427-6.427c-.188-.188-.196-.489-.02-.687l4.817-5.396c3.367-3.939 8.85-6.488 13.631-6.407.267.006.482.221.488.488.111 4.784-2.467 10.264-6.416 13.638l-5.387 4.81c-.094.085-.214.127-.332.127zm-5.74-6.946 5.759 5.759 5.043-4.502c3.606-3.082 6.001-7.994 6.075-12.375-4.381.073-9.292 2.468-12.368 6.066z"/><path d="m13.776 22.726c-.048 0-.097-.007-.143-.022-.18-.06-.328-.198-.354-.386l-.686-4.787c-.039-.273.151-.526.424-.566.273-.043.526.15.566.424l.536 3.74c1.752-2.095 2.726-4.751 2.726-7.459 0-.276.224-.5.5-.5s.5.224.5.5c0 3.313-1.342 6.556-3.682 8.895-.1.1-.246.161-.387.161z"/><path d="m6.541 11.412c-.023 0-.047-.001-.071-.005l-4.787-.686c-.188-.027-.345-.158-.404-.339-.059-.18-.011-.379.124-.512 2.373-2.373 5.615-3.715 8.928-3.715.276 0 .5.224.5.5s-.224.5-.5.5c-2.721 0-5.391.983-7.464 2.725l3.745.537c.273.04.463.292.424.566-.037.249-.251.429-.495.429z"/><path d="m17.133 9.366c-.641 0-1.281-.244-1.768-.731-.974-.975-.974-2.561 0-3.536.975-.975 2.561-.975 3.536 0 .974.975.974 2.561 0 3.536-.488.488-1.128.731-1.768.731zm0-3.998c-.384 0-.769.146-1.061.438-.584.585-.584 1.537 0 2.122.585.584 1.537.583 2.122 0 .584-.585.584-1.537 0-2.122-.293-.291-.677-.438-1.061-.438zm1.414 2.914h.01z"/><path d="m.5 24c-.131 0-.258-.051-.354-.146-.13-.13-.178-.321-.125-.497.164-.547 1.633-5.381 2.703-6.451 1.205-1.205 3.166-1.206 4.371 0 1.205 1.205 1.205 3.166 0 4.371-1.07 1.07-5.904 2.539-6.451 2.703-.048.013-.096.02-.144.02zm4.41-6.999c-.536 0-1.071.204-1.479.611-.577.578-1.537 3.159-2.171 5.128 1.968-.634 4.55-1.594 5.127-2.171.815-.815.815-2.142 0-2.957-.407-.407-.942-.611-1.477-.611z"/></svg>