<?xml version="1.0" encoding="iso-8859-1"?>
<!-- Generator: Adobe Illustrator 19.0.0, SVG Export Plug-In . SVG Version: 6.00 Build 0)  -->
<svg version="1.1" id="Capa_1" xmlns="http://www.w3.org/2000/svg" xmlns:xlink="http://www.w3.org/1999/xlink" x="0px" y="0px"
	 viewBox="0 0 494.929 494.929" style="enable-background:new 0 0 494.929 494.929;" xml:space="preserve">
<g>
	<g>
		<g>
			<path d="M494.927,8.642c0.025-2.3-0.875-4.516-2.5-6.141s-3.683-2.508-6.142-2.5c-102.072,1.28-193.04,30.465-266.529,84.908
				c-55.458-12.753-114.236,3.824-154.363,43.967C30.56,163.704,13.21,211.854,17.785,260.971c0.308,3.267,2.458,6.071,5.533,7.212
				c0.967,0.354,1.975,0.529,2.967,0.529c2.175,0,4.317-0.833,5.933-2.4c19.211-18.582,42.257-32.123,67.378-39.957
				c-12.583,24.434-22.991,50.354-30.994,77.773c-0.875,2.992-0.05,6.221,2.158,8.425l14.29,14.289l-49.44,27.603
				c-2.333,1.304-3.925,3.625-4.292,6.275c-0.367,2.646,0.525,5.313,2.417,7.204l92.925,93.013c1.608,1.617,3.783,2.504,6.033,2.504
				c0.392,0,0.775-0.025,1.167-0.079c2.65-0.367,4.975-1.954,6.283-4.288l27.685-49.456l14.548,14.548
				c1.625,1.625,3.8,2.5,6.033,2.5c0.8,0,1.6-0.112,2.392-0.342c27.352-7.979,53.214-18.351,77.597-30.894
				c-7.823,25.1-21.31,48.116-39.789,67.294c-2.275,2.362-3,5.817-1.858,8.892c1.142,3.071,3.942,5.221,7.208,5.525
				c5.225,0.487,10.425,0.729,15.608,0.729c43.692,0,85.467-17.142,116.492-48.246c40.136-40.141,56.752-98.993,44.041-154.554
				C464.495,201.601,493.65,110.672,494.927,8.642z M34.177,241.917c0.908-37.829,16.2-73.892,43.283-100.975
				c32.633-32.626,79.011-47.904,124.435-41.974c-9.703,8.061-19.115,16.529-28.119,25.533
				c-24.447,24.445-45.43,51.605-62.888,81.236C82.823,211.742,56.65,224.058,34.177,241.917z M130.76,440.896l-76.983-77.05
				l43.815-24.461l57.694,57.692L130.76,440.896z M190.852,408.504L86.427,304.083c19.758-64.946,53.183-121.287,99.417-167.517
				C260.635,61.779,361.393,20.625,477.677,17.25c-3.367,116.292-44.525,217.054-119.317,291.838
				C312.118,355.329,255.785,388.758,190.852,408.504z M353.985,417.567c-27,27.067-63.092,42.333-101.025,43.196
				c17.77-22.432,30.043-48.572,36.066-76.613c29.693-17.477,56.906-38.5,81.401-62.995c9.029-9.028,17.52-18.466,25.602-28.197
				C401.929,338.496,386.617,384.934,353.985,417.567z"/>
			<path d="M88.843,455.413c-22.158,16.192-47.842,24.079-71.5,22.171c-1.917-23.633,5.992-49.333,22.183-71.492
				c2.775-3.804,1.95-9.142-1.858-11.921c-3.808-2.796-9.142-1.95-11.925,1.854C5.427,423.821-3.498,456.833,1.252,486.596
				c0.583,3.642,3.433,6.5,7.083,7.079c5.25,0.842,10.592,1.254,16,1.254c25.242-0.004,51.683-9.008,74.575-25.742
				c3.808-2.779,4.633-8.117,1.858-11.921C97.985,453.471,92.652,452.617,88.843,455.413z"/>
			<path d="M333.427,161.508c-16.125-16.117-37.55-24.996-60.342-24.996c-22.8,0-44.225,8.879-60.342,24.996
				c-33.267,33.267-33.267,87.404,0,120.679c16.117,16.117,37.542,24.996,60.342,24.996c22.792,0,44.217-8.879,60.342-24.996
				C366.693,248.913,366.693,194.775,333.427,161.508z M321.36,270.121c-12.9,12.892-30.042,19.996-48.275,19.996
				c-18.242,0-35.383-7.104-48.275-19.996c-26.617-26.621-26.617-69.929,0-96.546c12.892-12.892,30.033-19.996,48.275-19.996
				c18.233,0,35.375,7.104,48.275,19.996C347.977,200.192,347.977,243.5,321.36,270.121z"/>
		</g>
	</g>
</g>
<g>
</g>
<g>
</g>
<g>
</g>
<g>
</g>
<g>
</g>
<g>
</g>
<g>
</g>
<g>
</g>
<g>
</g>
<g>
</g>
<g>
</g>
<g>
</g>
<g>
</g>
<g>
</g>
<g>
</g>
</svg>
