<svg id="Icons" height="512" viewBox="0 0 60 60" width="512" xmlns="http://www.w3.org/2000/svg"><path d="m25 4a21 21 0 1 0 21 21 21.024 21.024 0 0 0 -21-21zm0 40a19 19 0 1 1 19-19 19.021 19.021 0 0 1 -19 19z"/><path d="m58.535 51.465-6.671-6.672a4.951 4.951 0 0 0 -3.164-1.429l-3.567-3.564a25.033 25.033 0 1 0 -5.333 5.333l3.564 3.567a4.946 4.946 0 0 0 1.429 3.165l6.671 6.672a5 5 0 1 0 7.071-7.07zm-56.535-26.465a23 23 0 1 1 23 23 23.025 23.025 0 0 1 -23-23zm41.873 16.367 2.409 2.41a4.858 4.858 0 0 0 -2.5 2.5l-2.41-2.409a25.12 25.12 0 0 0 2.501-2.501zm13.247 15.754a3.067 3.067 0 0 1 -4.241 0l-6.672-6.672a3 3 0 0 1 4.242-4.242l6.672 6.672a3.031 3.031 0 0 1 -.001 4.242z"/><path d="m18.8 18.4a1 1 0 0 0 -1.4-.2l-8 6a1 1 0 0 0 0 1.6l8 6a1 1 0 1 0 1.2-1.6l-6.933-5.2 6.933-5.2a1 1 0 0 0 .2-1.4z"/><path d="m40.6 24.2-8-6a1 1 0 0 0 -1.2 1.6l6.933 5.2-6.933 5.2a1 1 0 1 0 1.2 1.6l8-6a1 1 0 0 0 0-1.6z"/><path d="m27.242 16.03a1 1 0 0 0 -1.212.728l-4 16a1 1 0 0 0 .728 1.212 1.017 1.017 0 0 0 .242.03 1 1 0 0 0 .969-.758l4-16a1 1 0 0 0 -.727-1.212z"/></svg>