<svg id="Layer_1" height="512" viewBox="0 0 512 512" width="512" xmlns="http://www.w3.org/2000/svg" data-name="Layer 1"><path d="m85.007 377.534c36.527 58.931 90.318 101.284 169.278 133.3a16.008 16.008 0 0 0 12.02 0c78.95-32 132.741-74.351 169.267-133.272 19.752-31.852 34.345-68.233 44.634-111.221 10.342-43.247 16.089-92.2 17.561-149.662a16.021 16.021 0 0 0 -4.449-11.494l-96.252-100.262a16.015 16.015 0 0 0 -11.541-4.923h-246.68a16.011 16.011 0 0 0 -11.329 4.7l-100.016 100.19a15.94 15.94 0 0 0 -4.67 11.715c1.467 57.472 7.21 106.438 17.546 149.689 10.278 42.998 24.88 79.388 44.631 111.24z" fill="#9c27b0" fill-rule="evenodd"/></svg>