<svg clip-rule="evenodd" fill-rule="evenodd" height="512" image-rendering="optimizeQuality" shape-rendering="geometricPrecision" text-rendering="geometricPrecision" viewBox="0 0 4335 4335" width="512" xmlns="http://www.w3.org/2000/svg"><g id="Layer_x0020_1"><path d="m1789 3012c-413 0-623-502-330-795 167-167 432-183 616-39l230-230c-312-270-781-254-1075 40-497 496-141 1348 559 1348 676 0 1038-798 598-1306l-230 230c237 303 21 752-368 752zm0 1321c-988 0-1787-799-1787-1787 0-987 799-1787 1787-1787 458 0 889 172 1222 484l180-181-96-484c-4-19 2-38 15-52l508-507c33-34 91-14 97 33l60 427 106-107c54-53 135 28 81 82l-106 106 427 59c47 7 67 65 33 98l-507 508c-14 13-33 19-52 15l-485-96-180 180c659 702 643 1802-40 2486-337 337-786 523-1263 523zm0-3458c-924 0-1672 748-1672 1671 0 924 748 1672 1672 1672 923 0 1671-748 1671-1672 0-427-159-830-449-1140l-230 230c485 527 471 1351-40 1862-526 527-1378 527-1905 0-525-525-525-1379 0-1904 512-511 1333-527 1863-40l230-230c-310-290-713-449-1140-449zm1425-289 75 378 383-383-55-399zm-1425 2018c-51 0-77-62-41-99l245-244c-139-100-331-85-452 37-221 221-63 599 248 599 286 0 450-325 285-555l-245 245c-11 11-26 17-40 17zm598-737 231-231c-485-443-1234-427-1700 40-480 480-480 1261 0 1741 481 481 1260 481 1741 0 467-467 480-1217 40-1700l-231 231c513 581 99 1503-679 1503-242 0-469-94-640-265-353-353-353-927 0-1280 338-339 881-354 1238-39zm1367-1205-383 384 378 75 404-403z"/></g></svg>